<?xml version="1.0" encoding="utf-8"?><!-- Uploaded to: SVG Repo, www.svgrepo.com, Generator: SVG Repo Mixer Tools -->
<svg width="800px" height="800px" viewBox="0 0 48 48" xmlns="http://www.w3.org/2000/svg"><title>24 Technology Devices icons</title><path d="M3,9H45a2,2,0,0,1,2,2V35a6,6,0,0,1-6,6H7a6,6,0,0,1-6-6V11A2,2,0,0,1,3,9Z" fill="none" stroke="#888a85" stroke-miterlimit="10" stroke-width="2"/><rect x="7" y="14" width="5" height="5" fill="none" stroke="#888a85" stroke-linejoin="round" stroke-width="2"/><rect x="16" y="14" width="5" height="5" fill="none" stroke="#888a85" stroke-linejoin="round" stroke-width="2"/><rect x="25" y="14" width="5" height="5" fill="none" stroke="#888a85" stroke-linejoin="round" stroke-width="2"/><rect x="34" y="14" width="7" height="5" fill="none" stroke="#888a85" stroke-linejoin="round" stroke-width="2"/><rect x="7" y="22" width="5" height="5" fill="none" stroke="#888a85" stroke-linejoin="round" stroke-width="2"/><rect x="16" y="22" width="5" height="5" fill="none" stroke="#888a85" stroke-linejoin="round" stroke-width="2"/><rect x="25" y="22" width="5" height="5" fill="none" stroke="#888a85" stroke-linejoin="round" stroke-width="2"/><rect x="7" y="30" width="5" height="5" fill="none" stroke="#888a85" stroke-linejoin="round" stroke-width="2"/><rect x="36" y="30" width="5" height="5" fill="none" stroke="#888a85" stroke-linejoin="round" stroke-width="2"/><rect x="16" y="30" width="16" height="5" fill="none" stroke="#888a85" stroke-linejoin="round" stroke-width="2"/><rect x="33" y="22" width="8" height="5" fill="none" stroke="#888a85" stroke-linejoin="round" stroke-width="2"/><rect width="48" height="48" fill="none"/></svg>